<svg id="Layer_1" data-name="Layer 1" xmlns="http://www.w3.org/2000/svg" viewBox="0 0 270.23 460"><path d="M194.35,314.46c-3.56,0-7.09-.15-10.59-.42V293.79c3.59.34,7.23.53,10.91.53a112.48,112.48,0,0,0,0-224.95q-5.52,0-10.91.53V49.65q5.25-.42,10.59-.42C267.48,49.23,327,108.72,327,181.85S267.48,314.46,194.35,314.46Z" transform="translate(-183.76 -24.57)" fill="#212121"/><path d="M194.67,294.32c-3.68,0-7.32-.19-10.91-.53V284a82.77,82.77,0,0,0,98.67-119.31h0a82.75,82.75,0,0,0-98.67-37.27V69.9q5.38-.53,10.91-.53a112.48,112.48,0,0,1,0,225Z" transform="translate(-183.76 -24.57)" fill="#333"/><path d="M293.29,205.73A82.76,82.76,0,0,1,183.76,284v-8.12c25.78,5.72,53.09-.1,73.35-17,26.48-22.11,36.72-59.68,25.32-94.17A82.39,82.39,0,0,1,293.29,205.73Zm-36,18.24c4.7,2.11,13.54-4.32,12.72-10.35a8.24,8.24,0,0,0-6.48-6.47,8.7,8.7,0,0,0-8.64,3.53C251.7,215.2,253.71,222.33,257.34,224Zm-6.91,13.89c3.36-2.77,3.18-8.81.39-10.66-2.33-1.54-6.11.12-8.13,2.12-1.66,1.63-3.59,4.9-2.32,7.37C241.87,239.63,247.34,240.41,250.43,237.86Z" transform="translate(-183.76 -24.57)" fill="#e3be78"/><path d="M257.11,258.89c26.48-22.11,36.72-59.68,25.32-94.17h0a82.75,82.75,0,0,0-98.67-37.27v8a31,31,0,1,1,0,58.81v81.66C209.54,281.63,236.85,275.81,257.11,258.89Zm-6.68-21c-3.09,2.55-8.56,1.77-10.06-1.17-1.27-2.47.66-5.74,2.32-7.37,2-2,5.8-3.66,8.13-2.12C253.61,229.05,253.79,235.09,250.43,237.86ZM257.34,224c-3.63-1.64-5.64-8.77-2.4-13.29a8.7,8.7,0,0,1,8.64-3.53,8.24,8.24,0,0,1,6.48,6.47C270.88,219.65,262,226.08,257.34,224Z" transform="translate(-183.76 -24.57)" fill="#f2deb6"/><path d="M193.55,195.83a30.8,30.8,0,0,1-9.79-1.58v-6.91a30.16,30.16,0,0,0,19.11-2.41c14.19-6.92,20.92-24.35,14.73-39.63a31,31,0,0,1-24,50.53Z" transform="translate(-183.76 -24.57)" fill="#f58b0a"/><path d="M183.76,187.34v-42c1-.42,2-.82,3-1.17a38,38,0,0,1,20.63-.92A24.75,24.75,0,0,0,190.71,137a26.7,26.7,0,0,0-7,1.34v-2.92a31,31,0,0,1,33.84,9.86c6.19,15.28-.54,32.71-14.73,39.63A30.16,30.16,0,0,1,183.76,187.34Z" transform="translate(-183.76 -24.57)" fill="#ffa812"/><path d="M186.8,144.21c-1.07.35-2.07.75-3,1.17v-7a26.7,26.7,0,0,1,7-1.34,24.75,24.75,0,0,1,16.72,6.27A38,38,0,0,0,186.8,144.21Z" transform="translate(-183.76 -24.57)" fill="#ffd68f"/><path d="M285.22,310.14l.17-.12A159.23,159.23,0,0,0,311,287.29l17.39,20.64C316.48,309,298.35,324.44,296,335.81l-17.72-21,.64-.42,1.14-.75C281.83,312.49,283.53,311.33,285.22,310.14Z" transform="translate(-183.76 -24.57)" fill="gray"/><path d="M328.41,307.93c3.26-.29,6.07.49,7.95,2.73L437.29,425l9.78,11.08a29.51,29.51,0,0,1-45.2,38L297.55,343.24a8.43,8.43,0,0,1-1.52-7.43C298.35,324.44,316.48,309,328.41,307.93Z" transform="translate(-183.76 -24.57)" fill="#263238"/><path d="M194.35,339.11c-3.56,0-7.09-.13-10.59-.36V314c3.5.27,7,.42,10.59.42C267.48,314.46,327,255,327,181.85S267.48,49.23,194.35,49.23q-5.34,0-10.59.42V24.94c3.51-.23,7-.37,10.59-.37,86.72,0,157.27,70.55,157.27,157.28A157.19,157.19,0,0,1,285.39,310l-.17.12q-2.54,1.78-5.13,3.48l-1.14.75A156.32,156.32,0,0,1,194.35,339.11Z" transform="translate(-183.76 -24.57)" fill="#525252"/></svg>