<svg id="Layer_1" data-name="Layer 1" xmlns="http://www.w3.org/2000/svg" viewBox="0 0 209.71 231.38"><g id="Pan"><path d="M344.1,208.46a68.52,68.52,0,1,1-68.51-68.52A68.51,68.51,0,0,1,344.1,208.46Z" transform="translate(-145.15 -129.35)" fill="#212121"/><path d="M332.16,208.46a56.58,56.58,0,1,1-56.57-56.58A56.57,56.57,0,0,1,332.16,208.46Z" transform="translate(-145.15 -129.35)" fill="#333"/><path d="M300,246.61a41.63,41.63,0,0,1-68.55-46.77l33.12,22.6Z" transform="translate(-145.15 -129.35)" fill="#e3be78"/><path d="M267.6,178.85a41.63,41.63,0,0,0-36.16,21c-5.73,17.35-.58,36.25,12.74,47.37,15.46,12.91,39.09,13,55.81-.6a41.62,41.62,0,0,0-32.39-67.76Zm-23.54,50.8c-2.36,1.06-6.81-2.18-6.39-5.21a4.16,4.16,0,0,1,3.26-3.26,4.38,4.38,0,0,1,4.34,1.78C246.9,225.24,245.89,228.82,244.06,229.65Zm8.54,6.4c-.75,1.48-3.5,1.87-5.06.58s-1.6-4.43-.2-5.36c1.18-.77,3.07.06,4.1,1.07C252.27,233.16,253.24,234.8,252.6,236.05Z" transform="translate(-145.15 -129.35)" fill="#f2deb6"/><path d="M290.93,204.86a15.59,15.59,0,1,1-26.88-14.79,15.85,15.85,0,0,0,5.49,18.56C276.06,213.12,285.62,211.69,290.93,204.86Z" transform="translate(-145.15 -129.35)" fill="#f58b0a"/><path d="M264.05,190.07a15.59,15.59,0,0,1,26.88,14.79,15.41,15.41,0,0,1-26.88-14.79Z" transform="translate(-145.15 -129.35)" fill="#ffa812"/><path d="M269.17,189.07a12.41,12.41,0,0,1,8.41-3.16c.37,0,6.51.28,9.57,5.3a10.89,10.89,0,0,1,1.52,4.88,18.93,18.93,0,0,0-19.5-7Z" transform="translate(-145.15 -129.35)" fill="#ffd68f"/><path d="M233.52,275.33l-9,10.62c-1.12-5.73-10.25-13.54-16.27-14.05l8.77-10.4A79.1,79.1,0,0,0,233.52,275.33Z" transform="translate(-145.15 -129.35)" fill="gray"/><path d="M153.55,330.77l-4.92,5.58a14.85,14.85,0,0,0,22.74,19.09l52.47-65.8c5.27-6.28-14.25-22.66-19.52-16.39l-50.77,57.52" transform="translate(-145.15 -129.35)" fill="#263238"/><path d="M332.32,153.22a79.07,79.07,0,1,1-56.57-23.87m0,0a78.85,78.85,0,0,1,56.57,23.87m-6.23,11.51a66.68,66.68,0,1,0,16.36,43.73,66.59,66.59,0,0,0-16.36-43.73" transform="translate(-145.15 -129.35)" fill="#525252"/></g></svg>