<svg id="Layer_1" data-name="Layer 1" xmlns="http://www.w3.org/2000/svg" viewBox="0 0 375 130.78"><path d="M434.87,207l-10.63,10.33-.21-.21a1.38,1.38,0,0,0-1.94,0,1.41,1.41,0,0,0-.42,1,2,2,0,0,0,0,.35,50.51,50.51,0,0,0-8.84,3.85c-3.53,2-7.9,5-8.69,8.29a8.1,8.1,0,0,0,.08,4,8.43,8.43,0,0,0,6.05,5.75,8.13,8.13,0,0,0,3.54,0c4.18-.93,6.59-4.67,8.53-7.68a39.12,39.12,0,0,0,4.29-9.07,1.41,1.41,0,0,0,.41.07,1.43,1.43,0,0,0,1-.39,1.36,1.36,0,0,0,.41-1,1.32,1.32,0,0,0-.39-1l-.2-.21,9.62-9.36v-2.3a1.67,1.67,0,0,1-.12.16l-10.63,10.33-1.38-1.42L436,208.11a1.2,1.2,0,0,1,.83-.36.9.9,0,0,1,.68.25v-1.78a2.52,2.52,0,0,0-.73-.09A2.84,2.84,0,0,0,434.87,207Zm-27.33,30h.14l0,.16Zm-1-1.2a6.52,6.52,0,0,1-.75-1.66,6.35,6.35,0,0,1-.06-3.19c.51-2.13,3.31-4.71,7.9-7.26a48.63,48.63,0,0,1,9.12-3.9l.15.16a83.37,83.37,0,0,0-7.91,4.87c-4.62,3.22-6.1,5-7.1,6.91A14.23,14.23,0,0,0,406.57,235.73Zm2.79-3.33c.88-1.71,2.24-3.29,6.58-6.32a79.41,79.41,0,0,1,7.82-4.8c-1.67,2.36-3.4,4.72-5.14,7-2.8,3.71-4.17,5.36-6.45,6.67a15,15,0,0,1-4.09,1.61A12.69,12.69,0,0,1,409.36,232.4Zm11.66-.71c-1.87,2.91-4,6.19-7.52,7a6.59,6.59,0,0,1-2.83,0A6.39,6.39,0,0,1,409,238a16.23,16.23,0,0,0,4-1.65c2.54-1.46,4-3.19,6.94-7.1,1.77-2.34,3.52-4.74,5.22-7.14l.21.22A37.62,37.62,0,0,1,421,231.69ZM406.7,283.52a.8.8,0,0,1-1.06,1.19.8.8,0,0,1-.06-1.12A.79.79,0,0,1,406.7,283.52ZM322.4,214c-2.2-1.75-6-.58-8.54,2.59a7.7,7.7,0,0,0-1.68,7.4l-11.13,12.64a2.71,2.71,0,1,0,3.95,3.7,3.07,3.07,0,0,0,.28-.35L315,226.23a7.68,7.68,0,0,0,6.81-3.35C324.34,219.71,324.6,215.72,322.4,214Zm-1.46,8.2c-1.73,2.18-4.21,3.37-6,2.87a.56.56,0,0,0-.6.22l-10,14a1.58,1.58,0,0,1-2.61-1.77l.14-.18,11.38-12.91a.56.56,0,0,0,.08-.64c-.9-1.65-.32-4.33,1.41-6.52,2.12-2.68,5.24-3.76,6.94-2.42S323.06,219.5,320.94,222.18Zm-25.67,10.43a2.26,2.26,0,0,0,.28-.35l9.67-13.62A5.08,5.08,0,0,0,310.7,217l5.6-7.08a.55.55,0,0,0-.09-.79l-.88-.7a.56.56,0,0,0-.75,0l-6.13,6-.08-.06,4.86-7a.55.55,0,0,0-.12-.76l-.88-.7a.56.56,0,0,0-.77.06l-5.69,6.33-.08-.06,4.46-7.35a.56.56,0,0,0-.13-.73l-.89-.71a.56.56,0,0,0-.79.1l-5.6,7.07a5.09,5.09,0,0,0-.38,5.74l-11,12.52a2.71,2.71,0,1,0,3.95,3.71Zm-3.1-3,11.31-12.86a.57.57,0,0,0,0-.7,4,4,0,0,1,.11-4.75l5.26-6.63.05,0-4.46,7.35a.58.58,0,0,0,.13.74l.89.7a.56.56,0,0,0,.77-.07l5.69-6.33.05.05-4.85,7a.56.56,0,0,0,.11.76l.88.7a.56.56,0,0,0,.75,0l6.13-6,.05,0-5.25,6.63a4,4,0,0,1-4.6,1.2.56.56,0,0,0-.67.19l-9.91,14a1.58,1.58,0,0,1-1.07.64,1.62,1.62,0,0,1-1.79-1.41h0A1.56,1.56,0,0,1,292.17,229.65Zm79.37-32.74a.65.65,0,0,1,.91,0,.63.63,0,0,1,0,.9.63.63,0,0,1-.9,0A.64.64,0,0,1,371.54,196.91Zm1.19-3a2.53,2.53,0,0,0-1.68.77l-9.76,10.13a2.56,2.56,0,0,0,3.69,3.54l9.75-10.13a2.52,2.52,0,0,0,.68-2.13c2.64-.39,4.81-2.64,8-5.91l1-1c2.13-2.18,3.81-3.91,3.78-5.83a3.82,3.82,0,0,0-1-2.37h-2l-12.31,12.78A.62.62,0,0,0,372.73,193.89Zm13.42-12.15a2.63,2.63,0,0,1,.7,1.59c0,1.39-1.5,2.95-3.42,4.92l-1,1c-3.12,3.24-5.21,5.4-7.58,5.57a1.64,1.64,0,0,0-.21-.25,2.1,2.1,0,0,0-.52-.38Zm-12.37,13.77a1.29,1.29,0,0,1,0,1.81l-9.75,10.13a1.28,1.28,0,0,1-1.85-1.78L372,195.54A1.29,1.29,0,0,1,373.78,195.51Zm-3.11,3.22a.65.65,0,0,1,0,.91.63.63,0,0,1-.9,0,.63.63,0,0,1,0-.9A.64.64,0,0,1,370.67,198.73Zm17.12,51.6-.23-1.47a.6.6,0,0,0-.68-.51l-20.09,2.88v-.55a.28.28,0,0,0,0-.09c-.14-1.32-1.79-2.39-4.93-3.18a42.05,42.05,0,0,0-8.74-1.09v-.73a1.64,1.64,0,0,0,1.06-1.52v0a1.62,1.62,0,0,0-1.62-1.62h-2.41a1.62,1.62,0,0,0-1.62,1.62v0a1.61,1.61,0,0,0,1,1.48v.77a42.1,42.1,0,0,0-8.67,1.09c-3.13.79-4.79,1.86-4.93,3.18a.28.28,0,0,0,0,.09v8.66a5.34,5.34,0,0,0,5.33,5.34h20.23a5.34,5.34,0,0,0,5.33-5.34v-4.17L387.32,251A.61.61,0,0,0,387.79,250.33Zm-38.06-6.28a.41.41,0,0,1,.41-.41h2.41a.41.41,0,0,1,.41.41v0a.41.41,0,0,1-.41.41h-2.41a.41.41,0,0,1-.41-.41Zm2.17,1.63v.5h-1.18v-.5Zm-.55,1.82c7.24,0,12.28,1.33,13.77,2.55H337.57C339.07,248.83,344.1,247.5,351.35,247.5Zm14.24,11.84a4.14,4.14,0,0,1-4.13,4.13H341.23a4.13,4.13,0,0,1-4.12-4.13v-8h28.48ZM367,253.9v-1.47l2.4-.35.21,1.29Zm3.8-.77-.2-1.22,15.88-2.28.05.32Zm-32.53,6.28v-6.6a.61.61,0,0,1,1.21,0v6.6a.61.61,0,1,1-1.21,0Zm-87.88-73.06a2.92,2.92,0,1,0,2.92-2.92A2.93,2.93,0,0,0,250.37,186.35Zm2.92-1.93a1.94,1.94,0,1,1-1.94,1.93A1.94,1.94,0,0,1,253.29,184.42Zm-1.3,1.47a2.08,2.08,0,0,1,1-1,.5.5,0,0,1,.65.26.49.49,0,0,1-.25.65,1.09,1.09,0,0,0-.49.47.49.49,0,0,1-.44.29.54.54,0,0,1-.21-.05A.49.49,0,0,1,252,185.89Zm-.88-3.52a5.5,5.5,0,0,0,.5,11,5.38,5.38,0,0,0,2.82-.79,3.31,3.31,0,0,0,5.64-1.65,4.59,4.59,0,0,0-1.3-8.79,4.44,4.44,0,0,0-1.07-1.17h-5.37A4.45,4.45,0,0,0,251.11,182.37ZM255,181a3.44,3.44,0,0,1,3,1.82.5.5,0,0,0,.41.26,3.6,3.6,0,0,1,1,7,.49.49,0,0,0-.33.41,2.32,2.32,0,0,1-4.2,1.12.5.5,0,0,0-.32-.2h-.08a.48.48,0,0,0-.29.1,4.51,4.51,0,1,1-2.79-8.16.5.5,0,0,0,.43-.29A3.44,3.44,0,0,1,255,181Zm-11.17,6.61a10.71,10.71,0,0,1,2-6.67h1.26a9.77,9.77,0,0,0,.77,13.46,9.79,9.79,0,0,0,16.47-7.47,9.68,9.68,0,0,0-2.31-6h1.25a10.74,10.74,0,0,1-.85,13.67h0a10.78,10.78,0,0,1-18.64-7Zm.88,8.29-1.7,1.82a1.94,1.94,0,0,0-.64-.08,2,2,0,0,0-1.4.63h0l-6.84,7.64a2,2,0,0,0,.1,2.83l.61.57h0a2,2,0,0,0,1.37.54h.07a2,2,0,0,0,1.4-.64h0l6.83-7.63a2,2,0,0,0,.42-2.06l1.7-1.83a13.14,13.14,0,0,0,17.56-1.47h0a13.14,13.14,0,0,0,1.91-15.28H265a12.14,12.14,0,1,1-22.5,6.72,12,12,0,0,1,1.77-6.72h-1.13a13.08,13.08,0,0,0,1.61,15Zm-.92,5h0L237,208.55a1,1,0,0,1-.71.32,1,1,0,0,1-.73-.27l-.6-.57a1,1,0,0,1,0-1.45h0l6.83-7.64a1,1,0,0,1,.71-.32,1,1,0,0,1,.29,0l0,.06,1.2,1.12.06,0A1,1,0,0,1,243.8,200.91Zm2-3.75-1.43,1.53-.48-.45,1.43-1.53Zm8.71,40a1.73,1.73,0,0,0,0-2.44.54.54,0,1,1,.77-.77,2.81,2.81,0,0,1,0,4,1.73,1.73,0,0,0,0,2.44.55.55,0,0,1,0,.77.54.54,0,0,1-.38.16.54.54,0,0,1-.39-.16A2.81,2.81,0,0,1,254.5,237.2Zm-4.07,1.31a.8.8,0,0,0,0-1.13.53.53,0,0,1,0-.77.54.54,0,0,1,.76,0,1.88,1.88,0,0,1,0,2.67.81.81,0,0,0,0,1.13.53.53,0,0,1,0,.77.53.53,0,0,1-.76,0,1.87,1.87,0,0,1,0-2.67Zm8.15,0a.8.8,0,0,0,0-1.13.53.53,0,0,1,0-.77.55.55,0,0,1,.77,0,1.9,1.9,0,0,1,0,2.67.79.79,0,0,0,0,1.13.55.55,0,0,1-.39.93.51.51,0,0,1-.38-.16,1.87,1.87,0,0,1,0-2.67Zm-9.25,11.63a.54.54,0,0,1-.44-.23,4.69,4.69,0,0,1-.82-3.59.55.55,0,0,1,.64-.44.55.55,0,0,1,.43.64,3.65,3.65,0,0,0,.63,2.75.55.55,0,0,1-.12.76A.56.56,0,0,1,249.33,250.14Zm12.13,5.49h-.11v0l.22,0a5.29,5.29,0,0,0,5.06-4,3.62,3.62,0,0,0-.23-2.89,3.31,3.31,0,0,0-2.42-1.19,8.28,8.28,0,0,0-.63-3.72c-.1-.19-.39-.77-.92-.77H246.63c-.53,0-.82.58-.92.77-.71,1.4-1.59,6.06,2,11.77h-.11c-2.2.39-5.88,1.34-5.88,3.25,0,2.45,6.33,4.85,12.77,4.85s12.77-2.4,12.77-4.85C267.26,257,263.63,256,261.46,255.63Zm2.46-7a2.33,2.33,0,0,1,1.59.71,2.7,2.7,0,0,1,.07,2,4.18,4.18,0,0,1-3.57,3.1A15.84,15.84,0,0,0,263.92,248.65Zm-17.14-4.49h15.51c.58.75,1.75,5.63-2.3,11.54h0l-.17.25-.23.32a6.29,6.29,0,0,1-5,2.56h0a6.29,6.29,0,0,1-5.05-2.56l-.24-.33-.17-.25h0C245,249.78,246.2,244.91,246.78,244.16Zm7.71,18.47c-6.75,0-11.68-2.47-11.68-3.76,0-.52,1.32-1.53,5-2.18a2.43,2.43,0,0,1,.38,0h.26l.18.25a6.1,6.1,0,0,0,.52.62,1.53,1.53,0,0,0,.18.18l.4.39.23.18.41.31.26.17.44.26.27.13a4.1,4.1,0,0,0,.48.21l.26.11.56.17.21.06c.27.06.53.11.8.15v.06h1.81v-.06a5.24,5.24,0,0,0,.79-.15,2,2,0,0,0,.23-.06c.18,0,.37-.1.55-.17l.27-.11.47-.2L258,259a4.77,4.77,0,0,0,.43-.25l.26-.17c.14-.09.27-.2.4-.3l.24-.19c.14-.12.27-.25.4-.38l.18-.19a6.1,6.1,0,0,0,.51-.61h0l.17-.23a2.29,2.29,0,0,1,.64,0c3.6.66,4.91,1.66,4.91,2.17C266.18,260.16,261.24,262.63,254.49,262.63Zm-61.31-35a.79.79,0,1,1,1.12-.07A.79.79,0,0,1,193.18,227.61Zm2.11-2.38a.79.79,0,1,1,1.12-.07A.79.79,0,0,1,195.29,225.23Zm-3.08,8.94-2.12-1.87,1.13-1.28a3.17,3.17,0,0,0,3.81-.71l11.58-13.08a3.18,3.18,0,0,0-4.76-4.21L190.28,226.1A3.16,3.16,0,0,0,190,230l-1.13,1.27-2.12-1.87a2.11,2.11,0,0,0-2.76-.05l-13.44,11a2.11,2.11,0,0,0-.06,3.23l9.55,8.45a2.07,2.07,0,0,0,1.7.52,2.12,2.12,0,0,0,1.5-1l9.33-14.68A2.13,2.13,0,0,0,192.21,234.17Zm-.74-7L203,214.07a1.59,1.59,0,0,1,2.38,2.11l-11.58,13.08a1.59,1.59,0,0,1-2.37-2.11Zm-.21,8.91-9.33,14.68a.59.59,0,0,1-.38.25.55.55,0,0,1-.43-.13l-9.55-8.45a.55.55,0,0,1-.18-.42.54.54,0,0,1,.2-.41l13.44-11a.53.53,0,0,1,.7,0l5.43,4.8A.55.55,0,0,1,191.26,236.06Zm-4.32-.2-7.9,8.92a.79.79,0,1,1-1.19-1.05l7.9-8.92a.79.79,0,0,1,1.19,1.05ZM185,234.37l-9,7.84a.8.8,0,0,1-1.12-.08A.79.79,0,0,1,175,241l9-7.84a.8.8,0,0,1,1.05,0l.07.07A.79.79,0,0,1,185,234.37Zm3.6,2a.81.81,0,0,1,.13,1l-6.69,9.85a.79.79,0,1,1-1.31-.89l6.68-9.85a.8.8,0,0,1,1.11-.22Zm-77.46,13.39a.65.65,0,0,1,0,.91.63.63,0,0,1-.9,0,.63.63,0,0,1,0-.9A.63.63,0,0,1,111.16,249.75Zm13.25-16.53-12.86,13.36a1,1,0,0,0-.1.17,2.55,2.55,0,0,0-1.69.77L100,257.65a2.56,2.56,0,0,0,3.68,3.55l9.76-10.14a2.52,2.52,0,0,0,.67-2.13c2.64-.39,4.81-2.64,8-5.91l1-1c2.13-2.18,3.81-3.91,3.78-5.83a4.22,4.22,0,0,0-1.52-3A.65.65,0,0,0,124.41,233.22Zm-11.88,17-9.76,10.13a1.28,1.28,0,0,1-1.84-1.77l9.75-10.14a1.28,1.28,0,0,1,1.85,1.78Zm9.62-9.07-1,1c-3.12,3.24-5.21,5.41-7.57,5.57a2.52,2.52,0,0,0-.21-.25,3.14,3.14,0,0,0-.52-.38l12-12.47a2.57,2.57,0,0,1,.7,1.59C125.59,237.58,124.07,239.14,122.15,241.11Zm-12.76,10.48a.66.66,0,0,1,0,.91.64.64,0,0,1-.93-.89A.66.66,0,0,1,109.39,251.59ZM67.18,228.76a1.93,1.93,0,0,0,.28-.36l9.66-13.61a5.09,5.09,0,0,0,5.49-1.7l5.6-7.07a.55.55,0,0,0-.09-.79l-.88-.7a.56.56,0,0,0-.75,0l-6.13,6-.08-.06,4.86-7a.55.55,0,0,0-.12-.76l-.88-.7a.56.56,0,0,0-.77.06l-5.69,6.33-.08-.06,4.46-7.35a.57.57,0,0,0-.13-.74l-.89-.7a.57.57,0,0,0-.79.09l-5.6,7.08a5.09,5.09,0,0,0-.39,5.73l-11,12.53a2.67,2.67,0,0,0-.73,1.88V227a2.71,2.71,0,0,0,4.68,1.74Zm-3.1-3,11.31-12.86a.57.57,0,0,0,0-.7,4,4,0,0,1,.11-4.75l5.26-6.63,0,0-4.46,7.35a.58.58,0,0,0,.13.74l.89.7a.57.57,0,0,0,.77-.07l5.69-6.33,0,0-4.85,7a.57.57,0,0,0,.11.77l.88.7a.56.56,0,0,0,.75,0l6.13-6,0,0-5.25,6.64a4,4,0,0,1-4.6,1.19.57.57,0,0,0-.67.2l-9.92,14a1.52,1.52,0,0,1-1.06.65A1.61,1.61,0,0,1,63.69,227h0A1.55,1.55,0,0,1,64.08,225.8Zm30.23-15.68c-2.2-1.74-6-.57-8.54,2.6a7.73,7.73,0,0,0-1.69,7.4L73,232.75a2.71,2.71,0,1,0,4,3.71,3.07,3.07,0,0,0,.28-.35l9.74-13.73A7.73,7.73,0,0,0,93.74,219C96.25,215.86,96.51,211.87,94.31,210.12Zm-1.46,8.21c-1.73,2.18-4.21,3.36-6,2.87a.54.54,0,0,0-.6.22l-10,14a1.58,1.58,0,0,1-2.62-1.77l.15-.18,11.38-12.91a.55.55,0,0,0,.07-.64c-.89-1.65-.31-4.33,1.42-6.52,2.12-2.69,5.24-3.77,6.94-2.42S95,215.64,92.85,218.33Zm39.23-18.56v-6.6a.61.61,0,0,1,1.21,0v6.6a.61.61,0,0,1-1.21,0Zm3,5.27h20.22a5.35,5.35,0,0,0,5.34-5.34v-4.18l20.52-4.14a.61.61,0,0,0,.48-.69l-.23-1.48a.6.6,0,0,0-.68-.5l-20.09,2.88v-.47a.28.28,0,0,0,0-.09V191c-.14-1.32-1.8-2.39-4.93-3.18a42.16,42.16,0,0,0-8.75-1.09v-.74a1.61,1.61,0,0,0,1.06-1.52v0a1.61,1.61,0,0,0-1.61-1.61H144a1.61,1.61,0,0,0-1.62,1.61v0a1.62,1.62,0,0,0,1,1.49v.77a42.1,42.1,0,0,0-8.67,1.09c-3.13.79-4.79,1.86-4.93,3.18V191a.19.19,0,0,0,0,.08v8.58A5.35,5.35,0,0,0,135.07,205Zm45.23-15,0,.32-15.74,3.18-.2-1.22Zm-19.48,2.8,2.39-.35.22,1.29-2.61.52Zm-17.25-8.39A.41.41,0,0,1,144,184h2.4a.41.41,0,0,1,.41.41v0a.41.41,0,0,1-.41.41H144a.41.41,0,0,1-.41-.41Zm2.16,1.64v.5h-1.18V186Zm-.55,1.82c7.25,0,12.28,1.33,13.78,2.55H131.4C132.9,189.19,137.93,187.86,145.18,187.86Zm-14.24,3.87h28.48v8a4.13,4.13,0,0,1-4.13,4.13H135.07a4.13,4.13,0,0,1-4.13-4.13Zm268.24,86.61a10.77,10.77,0,1,0,8.23,18.13h0a10.78,10.78,0,0,0-8.23-18.13Zm7.51,17.46a9.79,9.79,0,1,1-7.47-16.47h.33a9.79,9.79,0,0,1,7.14,16.48ZM399.11,276a13.12,13.12,0,0,0-9.45,21.76l-1.7,1.83a2,2,0,0,0-2,.55h0l-6.83,7.63a2,2,0,0,0,.1,2.84l.6.56h0a2,2,0,0,0,1.37.54h.07a2,2,0,0,0,1.4-.63h0l6.83-7.63a2,2,0,0,0,.41-2.07l1.71-1.82a13.15,13.15,0,0,0,17.55-1.47h0a13.13,13.13,0,0,0-10-22.09Zm-10.37,26.78h0l-6.83,7.64a1.06,1.06,0,0,1-.71.32,1,1,0,0,1-.74-.28l-.6-.56a1,1,0,0,1-.05-1.45h0l6.83-7.63a1,1,0,0,1,.71-.32,1.36,1.36,0,0,1,.29,0l.06.06,1.2,1.12.06.05A1.06,1.06,0,0,1,388.74,302.77Zm.56-2.23-.48-.45,1.43-1.52.48.45Zm19.11-3.13a12.16,12.16,0,0,1-17.16.57,12.14,12.14,0,0,1,7.89-21h.41a12.14,12.14,0,0,1,8.86,20.44Zm-10.19-12.12a2.92,2.92,0,1,0,2.93,2.92A2.92,2.92,0,0,0,398.22,285.29Zm0,4.86a1.94,1.94,0,1,1,1.94-1.94A1.94,1.94,0,0,1,398.22,290.15Zm.34-3.11a.49.49,0,0,1-.25.64,1,1,0,0,0-.49.48.48.48,0,0,1-.45.28.45.45,0,0,1-.2,0,.49.49,0,0,1-.25-.65,2.09,2.09,0,0,1,1-1A.5.5,0,0,1,398.56,287Zm1.39-5.17a4.42,4.42,0,0,0-3.9,2.36,5.49,5.49,0,1,0,3.32,10.18,3.3,3.3,0,0,0,5.63-1.65,4.59,4.59,0,0,0-1.3-8.79A4.4,4.4,0,0,0,400,281.87Zm6.87,6.66a3.6,3.6,0,0,1-2.42,3.4.51.51,0,0,0-.33.42,2.33,2.33,0,0,1-4.21,1.12.46.46,0,0,0-.32-.2h-.08a.52.52,0,0,0-.29.09,4.45,4.45,0,0,1-2.63.86,4.51,4.51,0,0,1-.16-9,.5.5,0,0,0,.44-.3,3.42,3.42,0,0,1,6.15-.23.5.5,0,0,0,.42.26A3.6,3.6,0,0,1,406.82,288.53Z" transform="translate(-62.5 -180.94)" fill="#ffd373"/></svg>