<svg id="Layer_1" data-name="Layer 1" xmlns="http://www.w3.org/2000/svg" viewBox="0 0 417.22 500"><path d="M146.65,125.94a116.51,116.51,0,0,1,35.27-85.15l.09-.08a120.36,120.36,0,0,1,170.21.08,116.51,116.51,0,0,1,35.27,85.15,116.49,116.49,0,0,1-35.27,85.15,116.49,116.49,0,0,1-85.15,35.27,116.51,116.51,0,0,1-85.15-35.27A116.49,116.49,0,0,1,146.65,125.94Zm332.1,293.51c0-10.07-.34-20-1-29.53l0,0a299.77,299.77,0,0,0-4.05-31.59,248,248,0,0,0-7.77-31.76A156.59,156.59,0,0,0,452.86,297a111.37,111.37,0,0,0-19.69-25.65,86.68,86.68,0,0,0-28.27-17.77A97.71,97.71,0,0,0,368.72,247a36.7,36.7,0,0,0-19.57,8.3c-5.87,3.84-12.77,8.24-20.39,13.14a116.85,116.85,0,0,1-26.37,11.62,102.43,102.43,0,0,1-64.52,0,116.38,116.38,0,0,1-26.36-11.62c-7.58-4.86-14.45-9.28-20.39-13.16a36.59,36.59,0,0,0-19.56-8.3,97.53,97.53,0,0,0-36.19,6.54,86.71,86.71,0,0,0-28.29,17.77,111.74,111.74,0,0,0-19.67,25.54,157.44,157.44,0,0,0-12.9,29.74,249.71,249.71,0,0,0-7.77,31.76,297.13,297.13,0,0,0-4,31.59c-.66,9.56-1,19.5-1,29.53a83,83,0,0,0,24.65,62.79,88.7,88.7,0,0,0,63.52,23.16H390.58a88.72,88.72,0,0,0,63.52-23.18A83,83,0,0,0,478.75,419.45Z" transform="translate(-61.61 -5.5)" fill="#febd2f"/></svg>