<svg id="Layer_1" data-name="Layer 1" xmlns="http://www.w3.org/2000/svg" viewBox="0 0 417.11 499.88"><path d="M167.21,211.11a116.48,116.48,0,0,0,85.13,35.26,116.47,116.47,0,0,0,85.13-35.26A116.48,116.48,0,0,0,372.73,126a116.48,116.48,0,0,0-35.26-85.13,120.34,120.34,0,0,0-170.18-.09l-.08.09A116.45,116.45,0,0,0,131.94,126,116.45,116.45,0,0,0,167.21,211.11ZM188,61.62a91,91,0,0,1,128.76,0l0,0A87.06,87.06,0,0,1,343.43,126a87,87,0,0,1-26.69,64.4,91,91,0,0,1-128.73,0l0,0A87,87,0,0,1,161.27,126,87,87,0,0,1,188,61.62Zm276,357.8c0-10.06-.34-20-1-29.52a297,297,0,0,0-4.05-31.58,249.11,249.11,0,0,0-7.76-31.75A157.23,157.23,0,0,0,438.09,297a111.32,111.32,0,0,0-19.69-25.64,86.74,86.74,0,0,0-28.26-17.77A97.71,97.71,0,0,0,354,247a36.67,36.67,0,0,0-19.56,8.3c-5.87,3.83-12.77,8.24-20.37,13.13a116.49,116.49,0,0,1-26.37,11.63,102.37,102.37,0,0,1-64.5,0,116.54,116.54,0,0,1-26.35-11.63c-7.58-4.85-14.45-9.25-20.39-13.15a36.56,36.56,0,0,0-19.56-8.3,97.71,97.71,0,0,0-36.18,6.54A86.58,86.58,0,0,0,92.42,271.3a111.53,111.53,0,0,0-19.67,25.54,157.77,157.77,0,0,0-12.94,29.75,248.82,248.82,0,0,0-7.76,31.73,294.41,294.41,0,0,0-4,31.58c-.66,9.54-1,19.48-1,29.52a83,83,0,0,0,24.65,62.79,88.7,88.7,0,0,0,63.5,23.15H375.8a88.7,88.7,0,0,0,63.5-23.15A83,83,0,0,0,464,419.42ZM419.17,461l0,0a59.77,59.77,0,0,1-43.31,15.09H135.2A59.75,59.75,0,0,1,91.89,461a54.16,54.16,0,0,1-15.56-41.57c0-9.36.32-18.6.94-27.47a264.19,264.19,0,0,1,3.66-28.44,219,219,0,0,1,6.83-28A127.36,127.36,0,0,1,98.4,311.46a82.54,82.54,0,0,1,14.45-18.94,57.41,57.41,0,0,1,18.81-11.69,67.44,67.44,0,0,1,23.07-4.45c1,.56,2.86,1.6,5.81,3.52,6,3.91,13,8.4,20.63,13.3A145.29,145.29,0,0,0,214.26,308a131.67,131.67,0,0,0,82.51,0,145.24,145.24,0,0,0,33.12-14.9c7.85-5,14.6-9.36,20.62-13.28,3-1.91,4.79-3,5.81-3.51a67.44,67.44,0,0,1,23.07,4.45,57.7,57.7,0,0,1,18.82,11.68,82.86,82.86,0,0,1,14.45,19,127.65,127.65,0,0,1,10.64,24.07,219.67,219.67,0,0,1,6.83,28.05A267.44,267.44,0,0,1,433.79,392c.62,8.83.94,18.09.94,27.47A54.22,54.22,0,0,1,419.17,461Z" transform="translate(-46.92 -5.56)" fill="#dcd4bd"/></svg>