<svg id="Layer_1" data-name="Layer 1" xmlns="http://www.w3.org/2000/svg" viewBox="0 0 512 407.51"><path id="camera-filled" d="M438.34,86.36H373a5.63,5.63,0,0,1-5.23-5.24A46.83,46.83,0,0,0,321.26,34H190.17a44.69,44.69,0,0,0-44.46,44.91c0,.7,0,1.4.06,2.11a5.63,5.63,0,0,1-5.23,5.23H72.61A74.74,74.74,0,0,0-.52,159.41v209a73,73,0,0,0,72.87,73.14h366a73,73,0,0,0,73.13-72.88,1.13,1.13,0,0,0,0-.26v-209A74.74,74.74,0,0,0,438.34,86.36ZM255.48,363.29A99.26,99.26,0,1,1,354.73,264h0a99.21,99.21,0,0,1-99.26,99.13Z" transform="translate(0.52 -34.02)" fill="#febd2f"/></svg>