?xml version="1.0" encoding="UTF-8"?><svg id="Layer_1" xmlns="http://www.w3.org/2000/svg" viewBox="0 0 19.5 15.5"><defs><style>.cls-1{fill:#dcd4bd;}</style></defs><path class="cls-1" d="M9.75,5c-2.07,0-3.75,1.68-3.75,3.75s1.68,3.75,3.75,3.75,3.75-1.68,3.75-3.75-1.68-3.75-3.75-3.75Zm0,6c-1.24,0-2.25-1.01-2.25-2.25s1.01-2.25,2.25-2.25,2.25,1.01,2.25,2.25-1.01,2.25-2.25,2.25Z"/><path class="cls-1" d="M16.75,2h-2.5c-.14,0-.25-.11-.25-.25,0-.97-.78-1.75-1.75-1.75H7.25c-.97,0-1.75,.78-1.75,1.75,0,.14-.11,.25-.25,.25H2.75C1.23,2,0,3.23,0,4.75V12.75c0,1.52,1.23,2.75,2.75,2.75h14c1.52,0,2.75-1.23,2.75-2.75V4.75c0-1.52-1.23-2.75-2.75-2.75Zm0,12H2.75c-.69,0-1.25-.56-1.25-1.25V4.75c0-.69,.56-1.25,1.25-1.25h2.5c.97,0,1.75-.78,1.75-1.75,0-.14,.11-.25,.25-.25h5c.14,0,.25,.11,.25,.25,0,.97,.78,1.75,1.75,1.75h2.5c.69,0,1.25,.56,1.25,1.25V12.75c0,.69-.56,1.25-1.25,1.25Z"/></svg>