<svg xmlns="http://www.w3.org/2000/svg" viewBox="0 0 40 39"><g id="Layer_2" data-name="Layer 2"><g id="Layer_1-2" data-name="Layer 1"><path d="M16,28a12.82,12.82,0,0,0,1,5H5.75A5.74,5.74,0,0,1,0,27.25v-17A5.74,5.74,0,0,1,5.75,4.5H9.51L10.8,2.19A4.25,4.25,0,0,1,14.52,0h7A4.25,4.25,0,0,1,25.2,2.19L26.49,4.5h3.76A5.74,5.74,0,0,1,36,10.25V17a13,13,0,0,0-7-2,13.17,13.17,0,0,0-3.41.45,8,8,0,1,0-9.4,10.34A12.44,12.44,0,0,0,16,28Zm24,0A11,11,0,1,1,29,17,11,11,0,0,1,40,28Zm-4,0a1,1,0,0,0-1-1H30V22a1,1,0,0,0-2,0v5H23a1,1,0,0,0,0,2h5v5a1,1,0,0,0,2,0V29h5A1,1,0,0,0,36,28Z" fill="#2a2a2a"/></g></g></svg>