<svg id="a785145d-ce0d-491b-aefc-6c1efc38787e" data-name="Layer 1" xmlns="http://www.w3.org/2000/svg" viewBox="0 0 12.2228 12.2174"><path d="M156.2714,155.6837l-.5.5,0,0a1.0691,1.0691,0,0,1-1.5119,0l-3.7855-3.7861-3.7864,3.7861,0,0a1.0688,1.0688,0,0,1-1.5117,0l-.5-.5,0,0a1.069,1.069,0,0,1,0-1.5118l3.7863-3.7863-3.78-3.7807,0,0a1.0688,1.0688,0,0,1,0-1.5117l.5-.5,0,0a1.069,1.069,0,0,1,1.5118,0l3.78,3.7807,3.7807-3.7807-.001.0009.0012-.0012a1.069,1.069,0,0,1,1.5118.0012l.5.5,0,0a1.069,1.069,0,0,1,0,1.5118l-3.7805,3.78,3.7855,3.7859.0016.0017A1.0681,1.0681,0,0,1,156.2714,155.6837Z" transform="translate(-144.3622 -144.2794)" fill="#e9e2cf"/></svg>