<svg id="a72bfbb3-5824-4f73-a348-4b627299c9cc" data-name="Layer 1" xmlns="http://www.w3.org/2000/svg" viewBox="0 0 148.289 91.2551"><path d="M266.4673,225.2977v46.28a7.6039,7.6039,0,0,1-7.6039,7.6039H229.9686a7.6039,7.6039,0,0,1-7.6039-7.6039v-29.772a7.6055,7.6055,0,0,1,3.83-6.6L255.09,218.694a7.6053,7.6053,0,0,1,11.3775,6.6037Z" transform="translate(-170.2665 -187.9262)" fill="#dcd4bd"/><path d="M214.7545,254.8425v16.7349a7.6039,7.6039,0,0,1-7.6039,7.6039h-29.28a7.6028,7.6028,0,0,1-3.77-14.2045l29.2766-16.7317a7.6053,7.6053,0,0,1,11.3775,6.5974Z" transform="translate(-170.2665 -187.9262)" fill="#dcd4bd"/><path d="M318.5556,195.5321v76.0453a7.6039,7.6039,0,0,1-7.6039,7.6039H281.6751a7.6039,7.6039,0,0,1-7.6039-7.6039V212.2638a7.6071,7.6071,0,0,1,3.8335-6.6037l29.2766-16.7286a7.5994,7.5994,0,0,1,11.3743,6.6006Z" transform="translate(-170.2665 -187.9262)" fill="#f5f3ef"/></svg>