<svg id="Layer_1" data-name="Layer 1" xmlns="http://www.w3.org/2000/svg" viewBox="0 0 148.29 91.26"><path d="M266.47,225.3v46.28a7.61,7.61,0,0,1-7.61,7.6H230a7.61,7.61,0,0,1-7.61-7.6V241.81a7.63,7.63,0,0,1,3.84-6.61l28.89-16.51a7.61,7.61,0,0,1,11.38,6.61Zm-55.5,23a7.55,7.55,0,0,0-7.59,0L174.1,265a7.6,7.6,0,0,0,3.77,14.2h29.28a7.6,7.6,0,0,0,7.6-7.6V254.84A7.59,7.59,0,0,0,211,248.27ZM314.77,189a7.59,7.59,0,0,0-7.59,0L277.9,205.66a7.61,7.61,0,0,0-3.83,6.6v59.32a7.61,7.61,0,0,0,7.61,7.6H311a7.61,7.61,0,0,0,7.61-7.6v-76A7.62,7.62,0,0,0,314.77,189Z" transform="translate(-170.27 -187.93)" fill="#dcd4bd"/></svg>