<svg id="Layer_1" data-name="Layer 1" xmlns="http://www.w3.org/2000/svg" viewBox="0 0 148.29 91.26"><path d="M266.47,225.3v46.28a7.61,7.61,0,0,1-7.61,7.6H230a7.61,7.61,0,0,1-7.61-7.6V241.81a7.63,7.63,0,0,1,3.84-6.61l28.89-16.51a7.61,7.61,0,0,1,11.38,6.61Z" transform="translate(-170.27 -187.93)" fill="#f5f3ef"/><path d="M214.75,254.84v16.74a7.6,7.6,0,0,1-7.6,7.6H177.87A7.6,7.6,0,0,1,174.1,265l29.28-16.73a7.59,7.59,0,0,1,11.37,6.59Z" transform="translate(-170.27 -187.93)" fill="#dcd4bd"/><path d="M318.56,195.53v76a7.61,7.61,0,0,1-7.61,7.6H281.68a7.61,7.61,0,0,1-7.61-7.6V212.26a7.61,7.61,0,0,1,3.83-6.6l29.28-16.73a7.6,7.6,0,0,1,11.38,6.6Z" transform="translate(-170.27 -187.93)" fill="#f5f3ef"/></svg>