<svg id="b5c268c3-be2e-456a-af1e-b86a00b1668b" data-name="icon" xmlns="http://www.w3.org/2000/svg" viewBox="0 0 23 28"><path d="M11,7a1,1,0,1,1-1,1A1,1,0,0,1,11,7Zm0,8a1,1,0,1,1-1,1A1,1,0,0,1,11,15Zm0,8a1,1,0,1,1-1,1A1,1,0,0,1,11,23ZM24,3H8A2,2,0,0,0,6,5V27a2,2,0,0,0,2,2H18V27H8V21H26V5A2,2,0,0,0,24,3Zm0,16H8V13H24Zm0-8H8V5H24Z" transform="translate(-6 -3)" fill="#e8e2cf"/><path d="M29,24.415,27.586,23,25,25.587,22.414,23,21,24.415,23.586,27,21,29.586,22.414,31,25,28.414,27.586,31,29,29.586,26.414,27Z" transform="translate(-6 -3)" fill="#fdbc2d"/></svg>