<svg xmlns="http://www.w3.org/2000/svg" viewBox="0 0 15.72 20"><g id="Layer_2" data-name="Layer 2"><g id="Layer_1-2" data-name="Layer 1"><path d="M15.68,4.86a3.72,3.72,0,0,0-3.45-2.32h-.71A3.12,3.12,0,0,0,8.48,0H7.23a3.12,3.12,0,0,0-3,2.54H3.48A3.72,3.72,0,0,0,0,4.86a.59.59,0,0,0,.33.76.54.54,0,0,0,.22,0H15.13a.59.59,0,0,0,.59-.58A.85.85,0,0,0,15.68,4.86ZM5.41,2.54A1.92,1.92,0,0,1,7.23,1.17H8.48a1.94,1.94,0,0,1,1.83,1.37ZM2.2,18.37A1.76,1.76,0,0,0,4,20h7.82a1.76,1.76,0,0,0,1.75-1.63l.83-11.53h-13ZM9.46,10a.59.59,0,0,1,1.17.06l-.31,6.25a.58.58,0,0,1-.63.53.57.57,0,0,1-.54-.59ZM5.65,9.41h0a.59.59,0,0,1,.62.56l.31,6.25a.59.59,0,0,1-1.17.06L5.09,10A.59.59,0,0,1,5.65,9.41Z" fill="#d15d5d"/></g></g></svg>