<svg id="Layer_1" data-name="Layer 1" xmlns="http://www.w3.org/2000/svg" viewBox="0 0 512 511.99"><path d="M498.23,222.7h0L289.33,13.81a47.14,47.14,0,0,0-66.65,0h0L13.93,222.55l-.21.22a47.11,47.11,0,0,0,31.36,80.3,14.27,14.27,0,0,0,1.46.07h8.32v153.7A55.23,55.23,0,0,0,110,512h81.71a15,15,0,0,0,15-15V376.5a25.21,25.21,0,0,1,25.17-25.17H280.1a25.21,25.21,0,0,1,25.17,25.17V497a15,15,0,0,0,15,15H402a55.23,55.23,0,0,0,55.17-55.16V303.14h7.72a47.14,47.14,0,0,0,33.31-80.44Z" transform="translate(0 -0.01)" fill="#febd2f"/></svg>