<svg id="Layer_1" data-name="Layer 1" xmlns="http://www.w3.org/2000/svg" viewBox="0 0 511.1 511.02"><path d="M497.22,222.26h0L288.74,13.78a47,47,0,0,0-66.47-.06l-.06.06L13.87,222.12c-.07.07-.15.14-.21.21A47,47,0,0,0,45,302.48a14.08,14.08,0,0,0,1.45.07h8.31V456a55.11,55.11,0,0,0,55,55h81.55a15,15,0,0,0,15-15V375.77a25.15,25.15,0,0,1,25.12-25.12h48.11a25.15,25.15,0,0,1,25.11,25.12V496a15,15,0,0,0,15,15h81.56a55.11,55.11,0,0,0,55-55V302.55h7.7a47,47,0,0,0,33.29-80.29ZM476,267.6a17,17,0,0,1-12.09,5H441.26a15,15,0,0,0-15,15V456a25.15,25.15,0,0,1-25.12,25.11H334.59V375.77a55.11,55.11,0,0,0-55.06-55.06H231.42a55.11,55.11,0,0,0-55.06,55.06V481.06H109.78A25.16,25.16,0,0,1,84.66,456V287.58a15,15,0,0,0-15-15h-23a17.08,17.08,0,0,1-11.77-29.17h0L243.39,35a17.08,17.08,0,0,1,24.15,0l0,0L476,243.34a.47.47,0,0,0,.1.1A17.13,17.13,0,0,1,476,267.6Z" transform="translate(0.06 0.02)" fill="#dcd4bd"/></svg>