<svg id="Capa_1" data-name="Capa 1" xmlns="http://www.w3.org/2000/svg" viewBox="0 0 489.4 310.2"><path d="M461.6,89.6H27.8A27.8,27.8,0,0,0,0,117.4V372a27.8,27.8,0,0,0,27.8,27.8H461.6A27.8,27.8,0,0,0,489.4,372V117.4A27.87,27.87,0,0,0,461.6,89.6ZM305.9,148a6.91,6.91,0,0,1,6.9-6.9h28.3A6.91,6.91,0,0,1,348,148v27.8a6.91,6.91,0,0,1-6.9,6.9H312.8a6.91,6.91,0,0,1-6.9-6.9Zm-34.4,75.5h28.3a6.91,6.91,0,0,1,6.9,6.9v27.8a6.91,6.91,0,0,1-6.9,6.9H271.5a6.91,6.91,0,0,1-6.9-6.9V230.4A6.91,6.91,0,0,1,271.5,223.5ZM223.7,148a6.91,6.91,0,0,1,6.9-6.9h28.3a6.91,6.91,0,0,1,6.9,6.9v27.8a6.91,6.91,0,0,1-6.9,6.9H230.6a6.91,6.91,0,0,1-6.9-6.9V148Zm-34.5,75.5h28.3a6.91,6.91,0,0,1,6.9,6.9v27.8a6.91,6.91,0,0,1-6.9,6.9H189.2a6.91,6.91,0,0,1-6.9-6.9V230.4A6.91,6.91,0,0,1,189.2,223.5ZM141.4,148a6.91,6.91,0,0,1,6.9-6.9h28.3a6.91,6.91,0,0,1,6.9,6.9v27.8a6.91,6.91,0,0,1-6.9,6.9H148.3a6.91,6.91,0,0,1-6.9-6.9Zm-82.7,0a6.91,6.91,0,0,1,6.9-6.9H93.9a6.91,6.91,0,0,1,6.9,6.9v27.8a6.91,6.91,0,0,1-6.9,6.9H65.6a6.91,6.91,0,0,1-6.9-6.9Zm42.1,193.4a6.91,6.91,0,0,1-6.9,6.9H65.6a6.91,6.91,0,0,1-6.9-6.9V313.6a6.91,6.91,0,0,1,6.9-6.9H93.9a6.91,6.91,0,0,1,6.9,6.9Zm34-76.3H106.5a6.91,6.91,0,0,1-6.9-6.9V230.4a6.91,6.91,0,0,1,6.9-6.9h28.3a6.91,6.91,0,0,1,6.9,6.9v27.8A6.91,6.91,0,0,1,134.8,265.1ZM348,341.4a6.91,6.91,0,0,1-6.9,6.9H148.4a6.91,6.91,0,0,1-6.9-6.9V313.6a6.91,6.91,0,0,1,6.9-6.9H341.1a6.91,6.91,0,0,1,6.9,6.9Zm34-76.3H353.7a6.91,6.91,0,0,1-6.9-6.9V230.4a6.91,6.91,0,0,1,6.9-6.9H382a6.91,6.91,0,0,1,6.9,6.9v27.8A6.91,6.91,0,0,1,382,265.1Zm48.7,76.3a6.91,6.91,0,0,1-6.9,6.9H395.5a6.91,6.91,0,0,1-6.9-6.9V313.6a6.91,6.91,0,0,1,6.9-6.9h28.3a6.91,6.91,0,0,1,6.9,6.9Zm0-165.6a6.91,6.91,0,0,1-6.9,6.9H395.5a6.91,6.91,0,0,1-6.9-6.9V148a6.91,6.91,0,0,1,6.9-6.9h28.3a6.91,6.91,0,0,1,6.9,6.9Z" transform="translate(0 -89.6)" fill="#2a2a2a"/></svg>