<svg id="a5e6f52f-6e99-4a83-861b-58c77fa84811" data-name="Layer 1" xmlns="http://www.w3.org/2000/svg" viewBox="0 0 61.999 62.0107"><g id="a433db58-6460-4e3f-b5da-7ff4d1f57323" data-name="Group 133"><path d="M123.7964,174.82v-10.645l2.3-1.534h3.7v-2h-4.3l-3.7,2.464V174.82a3,3,0,1,0,2,0Zm-1,3.815a1,1,0,1,1,1-1A1,1,0,0,1,122.7964,178.6347Zm-.0144-18.1635a3,3,0,0,0,1.8285-1.8284h5.1859v-2h-5.1859a3,3,0,1,0-1.8285,3.8284Zm-1.9856-2.8284a1,1,0,1,1,1,1A1,1,0,0,1,120.7964,157.6428Zm9-8.997h-5.1859a2.9986,2.9986,0,1,0,.001,2h5.1849Zm-8,2a1,1,0,1,1,1-1A1,1,0,0,1,121.7964,150.6458Zm3.998,3.997v-1.9991h3.9991v1.9991Zm3.9991-9.9961v1.9991h-3.9991v-1.9991Zm-.0011-2h-10.996v-1.9989h10.996Zm-3.4129-3.995h3.416v-2h-2.588l-2.412-2.416v-1.77a3,3,0,1,0-2,0v2.6Zm-2.584-10a1,1,0,1,1-1,1A1,1,0,0,1,123.7955,128.6517Zm10.5819-3.998h-15.581v-2h16.409l3.5851,3.585v3.415h-2v-2.587Zm3.9991-3.999h-19.58v-2h20.407l3.586,3.585v7.415h-2v-6.587Zm8.411,8.997h-1.999v-3.999h1.999Zm11.9959-.0009h-1.999V118.6547h1.999Zm-9.996-5.182v5.1859h2v-3.588l2,2v1.588h2v-2.417l-3.2-3.2a3,3,0,1,0-2.8.4311Zm1-3.8141a1,1,0,1,1-1,1A1,1,0,0,1,149.7874,120.6547Zm12.995,4.412,2.413-2.412h9.767a3,3,0,0,0,1.815,1.815v13.765l-2.413,2.4131h-4.582v2h5.412l3.585-3.5851V124.4688a2.992,2.992,0,1,0-3.818-3.8141h-10.594l-3.585,3.5841v5.4159h2Zm14.995-4.412.005-.001a1.2709,1.2709,0,1,1-.005.001Zm-7.412,15.997h-.584v2h1.414l3.586-3.589v-2.827l-3.588-3.584h-.6a2.984,2.984,0,1,0-.056,2.173h.002l2.242,2.239v1.172Zm-2.584-6a1,1,0,1,1,1-1A1,1,0,0,1,167.7814,130.6517Zm12.9941,13.995v1.9991H169.7794v-1.9991Zm-1.9961,30.174V152.23l-3.588-3.585h-5.412v2h4.585l2.415,2.413v5.17l-1.588-1.583h-5.412v2h4.585l2.415,2.41v13.766a3,3,0,1,0,2,0Zm-1,3.814v.001a1,1,0,1,0,0-.001Zm-4.001-23.9919h-3.999v-1.9991h3.999Zm-3.996,5.9979v2h.586l2.414,2.413v5.587h-10v-1h-2v3h12v1.585l-2.413,2.413H168.6a3,3,0,1,0,0,2h2.6l3.582-3.589v-10.824l-3.589-3.585Zm-4,17.994a1,1,0,1,1,1-1A1,1,0,0,1,165.7824,178.6347Zm-26.988-8.996h-2v1h-5.1859a3,3,0,1,0,0,2h7.1859Zm-10,3a1,1,0,1,1,1-1A1,1,0,0,1,128.7944,172.6387Zm27.99-3.0009h1.999v10.9959h-1.999Zm-3.9989,0h1.9989v10.9959h-1.9989Zm-3.997,1.5849-2,2v-3.5849h-2v5.182a3,3,0,1,0,2.8.4309l3.2-3.2v-2.4129h-2Zm-3,7.4151a1,1,0,1,1,1-1A1,1,0,0,1,145.7885,178.6378Zm-4.998-9h2v3.4149l-3,3v4.5851h-2v-5.4151l3-3Zm19.9929-1.9991h2v-2h3v-3h2v-2h-2v-2h2v-2h-2v-2h2v-2h-2v-2h2v-2h-2v-2h2v-2h-2v-2h2v-2h-2v-2h2v-2h-2v-3h-3v-2h-2v2h-2v-2h-2v2h-2v-2h-2v2h-2v-2h-2v2h-2v-2h-2v2h-2v-2h-2v2h-2v-2h-2v2h-.414l-2.577,2.597v.4151h-2v2h2v2h-2v2h2v2h-2v2h2v2h-2v2h2v2h-2v2h2v2h-2v2h2v2h-2v2h2v3h3v2h2v-2h2v2h2v-2h2v2h2v-2h2v2h2v-2h2v2h2v-2h2v2h2v-2h2Zm-24.992-4v-26.576l1.4131-1.4119h26.578v27.99Z" transform="translate(-118.7812 -118.6393)" fill="#e8e2cf"/><path d="M161.7844,152.6458v-6H159.32a9.7966,9.7966,0,0,0-.675-1.6181l1.7439-1.7439-4.2409-4.2411-1.7441,1.744a9.8609,9.8609,0,0,0-1.6179-.673v-2.465h-6v2.465a9.787,9.787,0,0,0-1.618.673l-1.744-1.744-4.2411,4.2411,1.7441,1.7439a9.9355,9.9355,0,0,0-.673,1.6181h-2.463v6h2.4649a9.7764,9.7764,0,0,0,.6731,1.6179l-1.7441,1.7441,4.241,4.2409,1.744-1.744a9.9116,9.9116,0,0,0,1.618.673v2.465h6v-2.465a9.778,9.778,0,0,0,1.6181-.673l1.7439,1.744,4.241-4.2409-1.744-1.7441a9.8774,9.8774,0,0,0,.6731-1.6179Zm-4.0279-1.9971-.177.7781a7.9619,7.9619,0,0,1-1.0271,2.4729l-.4259.676,1.437,1.436-1.414,1.414-1.437-1.4369-.6761.4259a7.9593,7.9593,0,0,1-2.4729,1.027l-.778.177v2.0271h-2v-2.0271l-.7781-.177a7.9608,7.9608,0,0,1-2.473-1.027l-.6759-.4259-1.4371,1.4369-1.414-1.414,1.4371-1.4369-.4261-.6761a7.96,7.96,0,0,1-1.0269-2.473l-.177-.7779h-2.024v-2h2.0269l.177-.778a7.9628,7.9628,0,0,1,1.027-2.4731l.426-.6759-1.437-1.437,1.414-1.414,1.4371,1.4359.6759-.4259a7.9608,7.9608,0,0,1,2.473-1.027l.7781-.176v-2.0281h2v2.027l.7779.177a7.9622,7.9622,0,0,1,2.473,1.027l.6761.426,1.4359-1.436,1.414,1.414-1.437,1.437.426.676a7.9608,7.9608,0,0,1,1.027,2.473l.177.777h2.027l-.002,2.002Zm-7.968-6.002a5,5,0,1,0,5,5A5,5,0,0,0,149.7885,144.6467Zm0,8a3,3,0,1,1,3-3A3,3,0,0,1,149.7885,152.6467Z" transform="translate(-118.7812 -118.6393)" fill="#fdbc2d"/></g></svg>