<svg id="ea40f5bd-6f26-49a0-9158-74a14a0d813a" data-name="a5e6f52f-6e99-4a83-861b-58c77fa84811" xmlns="http://www.w3.org/2000/svg" viewBox="0 0 61.9989 62.0106"><g id="a0d58260-aa8e-49d6-b954-d9d1adb797e1" data-name="a433db58-6460-4e3f-b5da-7ff4d1f57323"><path d="M5.0152,56.1807V45.5357l2.3-1.534h3.7v-2h-4.3l-3.7,2.464v11.715a3,3,0,1,0,2,0Zm-1,3.815a1,1,0,1,1,1-1,1,1,0,0,1-1,1ZM4.0008,41.8322a3,3,0,0,0,1.8285-1.8284h5.1859v-2H5.8293a3,3,0,1,0-1.8285,3.8284ZM2.0152,39.0038a1,1,0,1,1,1,1,1,1,0,0,1-1-1v0Zm9-8.997H5.8293a2.9987,2.9987,0,1,0,.001,2h5.1849Zm-8,2a1,1,0,1,1,1-1,1,1,0,0,1-1,1Zm3.998,3.997V34.0047h3.9991v1.9991Zm3.9991-9.9961v1.9991H7.0132V26.0077Zm-.0011-2H.0152V22.0088h10.996Zm-3.4129-3.995h3.416v-2H8.4263l-2.412-2.416v-1.77a3,3,0,1,0-2,0v2.6Zm-2.584-10a1,1,0,1,1-1,1,1,1,0,0,1,1-1h0Zm10.5819-3.998H.0152v-2h16.409L20.0093,7.6v3.415h-2V8.4277Zm3.9991-3.999H.0153v-2h20.407l3.586,3.585v7.415h-2V4.4287Zm8.411,8.997h-1.999V7.0137h1.999Zm11.9959-.0009h-1.999V.0154h1.999ZM30.0062,5.83v5.1859h2V7.4277l2,2v1.588h2V8.5987l-3.2-3.2a3,3,0,1,0-2.8.4311Zm1-3.8141a1,1,0,1,1-1,1,1,1,0,0,1,1-1h0Zm12.995,4.412,2.413-2.412h9.767a2.9994,2.9994,0,0,0,1.815,1.815v13.765l-2.413,2.4131h-4.582v2h5.412l3.585-3.5851V5.83A2.992,2.992,0,1,0,56.18,2.0154H45.5862L42.0012,5.6v5.4159h2Zm14.995-4.412.005-.001a1.2713,1.2713,0,1,1-.005.001Zm-7.412,15.997H51v2h1.414L56,16.4237v-2.827l-3.588-3.584h-.6a2.984,2.984,0,1,0-.056,2.173h.002L54,14.4247v1.172Zm-2.584-6a1,1,0,1,1,1-1,1,1,0,0,1-1,1Zm12.9941,13.995v1.9991H50.9982V26.0077Zm-1.9961,30.174V33.5907l-3.588-3.585h-5.412v2h4.585l2.415,2.413v5.17l-1.588-1.583h-5.412v2h4.585l2.415,2.41v13.766a3,3,0,1,0,2,0Zm-1,3.814v.001a1,1,0,1,0,0-.001Zm-4.001-23.9919h-3.999V34.0047h3.999Zm-3.996,5.9979v2h.586l2.414,2.413v5.587h-10v-1h-2v3h12v1.585L51.5882,58H49.8188a3,3,0,1,0,0,2h2.6l3.582-3.589V45.5867l-3.589-3.585Zm-4,17.994a1,1,0,1,1,1-1,1,1,0,0,1-1,1ZM20.0132,51h-2v1H12.8273a3,3,0,1,0,0,2h7.1859Zm-10,3a1,1,0,1,1,1-1,1,1,0,0,1-1,1Zm27.99-3.0009h1.999V61.9947h-1.999Zm-3.9989,0h1.9989V61.9947H34.0043Zm-3.997,1.5849-2,2V50.9988h-2v5.182a3,3,0,1,0,2.8.4309l3.2-3.2V50.9988h-2Zm-3,7.4151a1,1,0,1,1,1-1,1,1,0,0,1-1,1Zm-4.998-9h2v3.4149l-3,3v4.5851h-2V56.5837l3-3ZM42.0022,49h2V47h3V44h2V42h-2V40h2V38h-2V36h2V34h-2V32h2V30h-2V28h2V26h-2V24h2V22h-2V20h2V18h-2V15h-3V13h-2v2h-2V13h-2v2h-2V13h-2v2h-2V13h-2v2h-2V13h-2v2h-2V13h-2v2h-2V13h-2v2h-.414l-2.577,2.597v.4151h-2v2h2v2h-2v2h2v2h-2v2h2v2h-2v2h2v2h-2v2h2v2h-2v2h2v2h-2v2h2v3h3v2h2v-2h2v2h2v-2h2v2h2v-2h2v2h2v-2h2v2h2v-2h2v2h2v-2h2ZM17.01,45V18.4237l1.4131-1.4119h26.578v27.99Z" transform="translate(0 -0.0004)" fill="#fdbc2d"/><path d="M43.0032,34.0065v-6H40.5388a9.7966,9.7966,0,0,0-.675-1.6181l1.7439-1.7439-4.2409-4.2411-1.7441,1.744a9.8646,9.8646,0,0,0-1.6179-.673v-2.465h-6v2.465a9.782,9.782,0,0,0-1.618.673l-1.744-1.744-4.2411,4.2411,1.7441,1.7439a9.93,9.93,0,0,0-.673,1.6181H19.01v6h2.4649a9.7814,9.7814,0,0,0,.6731,1.6179l-1.7441,1.7441,4.241,4.2409,1.744-1.744a9.9043,9.9043,0,0,0,1.618.673v2.465h6v-2.465a9.7744,9.7744,0,0,0,1.6181-.673l1.7439,1.744,4.241-4.2409-1.744-1.7441a9.8825,9.8825,0,0,0,.6731-1.6179Zm-4.0279-1.9971-.177.7781A7.9619,7.9619,0,0,1,37.7712,35.26l-.4259.676,1.437,1.436-1.414,1.414L35.9313,37.35l-.6761.4259a7.9593,7.9593,0,0,1-2.4729,1.027l-.778.177v2.0271h-2V38.9794l-.7781-.177a7.96,7.96,0,0,1-2.473-1.027l-.6759-.4259L24.64,38.7864l-1.414-1.414,1.4371-1.4369-.4261-.6761a7.96,7.96,0,0,1-1.0269-2.473l-.177-.7779h-2.024v-2h2.0269l.177-.778a7.9614,7.9614,0,0,1,1.027-2.4731l.426-.6759-1.437-1.437,1.414-1.414L26.08,24.6664l.6759-.4259a7.96,7.96,0,0,1,2.473-1.027l.7781-.176V21.0094h2v2.027l.7779.177a7.9632,7.9632,0,0,1,2.473,1.027l.6761.426L37.37,23.23l1.414,1.414-1.437,1.437.426.676A7.9622,7.9622,0,0,1,38.8,29.23l.177.777h2.027l-.002,2.002Zm-7.968-6.002a5,5,0,1,0,5,5A5,5,0,0,0,31.0073,26.0074Zm0,8a3,3,0,1,1,3-3A3,3,0,0,1,31.0073,34.0074Z" transform="translate(0 -0.0004)" fill="#e8e2cf"/></g></svg>