<svg id="Layer_1" data-name="Layer 1" xmlns="http://www.w3.org/2000/svg" viewBox="0 0 18.74 17.14"><path d="M109.36,100.67v6.41a1.14,1.14,0,0,1-1.17,1.12H91.79a1.14,1.14,0,0,1-1.17-1.12v-6.41h0a1.15,1.15,0,0,1,1.17-1.12H96a1.14,1.14,0,0,1,1.11.77,3.14,3.14,0,0,0,1.87,1.87,3.11,3.11,0,0,0,4-1.87,1.16,1.16,0,0,1,1.11-.77h4.16A1.14,1.14,0,0,1,109.36,100.67ZM96.75,96h1.52V100a.32.32,0,0,0,.31.3h2.82a.32.32,0,0,0,.32-.3V96h1.52a.33.33,0,0,0,.28-.16.29.29,0,0,0,0-.31l-3.25-4.38a.32.32,0,0,0-.26-.12.29.29,0,0,0-.25.13l-3.24,4.37a.31.31,0,0,0,0,.31A.32.32,0,0,0,96.75,96Z" transform="translate(-90.62 -91.07)" fill="#2a2a2a"/></svg>