<svg xmlns="http://www.w3.org/2000/svg" viewBox="0 0 45.93 47.76"><g id="Layer_2" data-name="Layer 2"><g id="Layer_1-2" data-name="Layer 1"><path d="M34.93,25.76a11,11,0,1,0,11,11A11,11,0,0,0,34.93,25.76Zm6,12h-5v5a1,1,0,0,1-2,0v-5h-5a1,1,0,0,1,0-2h5v-5a1,1,0,1,1,2,0v5h5a1,1,0,0,1,0,2ZM13,10.59a.69.69,0,0,1,0-.68L20.12.29A.62.62,0,0,1,20.67,0a.7.7,0,0,1,.57.26L28.4,9.91a.64.64,0,0,1,0,.68.72.72,0,0,1-.62.35H24.43v8.81a.7.7,0,0,1-.7.66H17.52a.7.7,0,0,1-.68-.66V10.94H13.49A.68.68,0,0,1,13,10.59Zm8.87,26.17c0,.35,0,.69.05,1H2.58A2.52,2.52,0,0,1,0,35.35V21.22a2.53,2.53,0,0,1,2.58-2.46h9.26a2.51,2.51,0,0,1,2.45,1.69,6.87,6.87,0,0,0,12.9.05l0-.05a2.55,2.55,0,0,1,2.44-1.69h9.16a2.5,2.5,0,0,1,2.44,2.46v4.1A13.07,13.07,0,0,0,21.86,36.76Z" fill="#2a2a2a"/></g></g></svg>